<?xml version="1.0" encoding="UTF-8"?>
<svg id="Layer_2" data-name="Layer 2" xmlns="http://www.w3.org/2000/svg" viewBox="0 0 275.38 99.65">
  <defs>
    <style>
      .cls-1 {
        fill: #fff;
      }
    </style>
  </defs>
  <g id="Layer_1-2" data-name="Layer 1">
    <path class="cls-1" d="m275.28,70.24c-1.11-10.86-11.56-19.08-22.39-20.51-10.83-1.43-21.68,2.63-31.11,8.15-.32-14.42-9.42-28.3-22.52-34.34s-29.56-3.96-40.74,5.16c-1.92-13.82-13.82-25.25-27.5-27.99-13.68-2.74-28.35,2.63-38.14,12.57-9.79,9.94-14.88,23.96-15.32,37.91-10.35-15.9-32.25-23.13-50.02-16.51C12.93,40.11,3.1,53.87.55,68.95c-3.02,17.82,6.61,25.75,24.45,26.15,66.68,1.48,133.36,2.97,200.04,4.45,11.04.25,22.47.42,32.63-3.89,10.16-4.32,18.74-14.43,17.62-25.41Z"/>
  </g>
</svg>