<?xml version="1.0" encoding="UTF-8"?>
<svg id="Layer_2" data-name="Layer 2" xmlns="http://www.w3.org/2000/svg" viewBox="0 0 174.79 91.14">
  <defs>
    <style>
      .cls-1 {
        fill: #fff;
      }
    </style>
  </defs>
  <g id="Layer_1-2" data-name="Layer 1">
    <path class="cls-1" d="m36.65,90.4c-8.12.13-16.65.16-23.78-3.72C3.65,81.66-1.37,70.3.33,59.94c1.7-10.36,9.59-19.26,19.4-23,9.81-3.74,21.19-2.54,30.46,2.38-1.85-12.25,3.55-25.32,13.5-32.69,9.95-7.37,24.03-8.72,35.21-3.38,11.18,5.34,18.97,17.14,19.48,29.52,10.34-4.27,22.22-5.22,32.78-1.52,10.55,3.7,19.52,12.33,22.56,23.09,3.04,10.76-.45,23.37-9.29,30.22-7.83,6.07-18.05,6.92-27.6,6.49-9.97-.45-19.13-1.93-29.28-1.77-23.63.37-47.26.74-70.89,1.12Z"/>
  </g>
</svg>