<?xml version="1.0" encoding="UTF-8"?>
<svg id="Layer_2" data-name="Layer 2" xmlns="http://www.w3.org/2000/svg" viewBox="0 0 190.86 104.52">
  <defs>
    <style>
      .cls-1 {
        fill: #fff;
      }
    </style>
  </defs>
  <g id="Layer_1-2" data-name="Layer 1">
    <path class="cls-1" d="m175.49,70.29c.7-10.46,5.87-19.37,8.13-29.4,1.5-6.67,2.51-13.86,6.27-19.64-12.5-2.99-26.54.36-35.98,9.17C148.4,10.99,127.24-2.62,107.27.43c-19.97,3.05-36.1,22.36-35.56,42.55-15.36-12.19-39.06-12.37-54.6-.42C3.96,52.66-2.46,70.85.87,87.04c3.44,16.72,22.08,12.26,35.62,12.68l60.75,1.89c31.21.97,62.41,1.94,93.62,2.91-10.12-8.15-16.27-20.81-15.36-34.23Z"/>
  </g>
</svg>