<?xml version="1.0" encoding="UTF-8"?>
<svg id="Layer_2" data-name="Layer 2" xmlns="http://www.w3.org/2000/svg" viewBox="0 0 592.7 484.58">
  <defs>
    <style>
      .cls-1 {
        fill: #ffb29e;
        stroke-width: 3px;
      }

      .cls-1, .cls-2 {
        stroke: #000;
        stroke-miterlimit: 10;
      }

      .cls-3 {
        fill: #fb4e52;
        font-family: Bukhari-Script, 'Bukhari Script';
        font-size: 91.73px;
      }

      .cls-2 {
        fill: none;
        stroke-width: 2.5px;
      }
    </style>
  </defs>
  <g id="Layer_1-2" data-name="Layer 1">
    <g>
      <text class="cls-3" transform="translate(62.5 427.62)"><tspan x="0" y="0">Franmental</tspan></text>
      <g>
        <g>
          <g>
            <path class="cls-1" d="m301.91,133.89c2.82,14.92,8.77,14.28,5.73,13.82-2.3-.35-4.41,5.02-5.73,26.27v86.69c1.36,7.8,3.73,13.55,7.29,17.68,6.07,7.03,15.57,9.38,29.29,9.23,11.52-.11,21.99-4.71,29.67-12.13,7.68-7.42,12.58-17.67,12.95-29.11.48.05.95.09,1.43.11.48.02.95.03,1.43.03,8.92,0,17.01-3.63,22.87-9.48,5.86-5.86,9.49-13.95,9.49-22.87,0-3.35-.51-6.63-1.49-9.75-.98-3.11-2.43-6.06-4.32-8.75,8.52-4.77,15.48-11.67,20.3-19.86,4.82-8.18,7.5-17.66,7.5-27.58,0-8.76-2.06-17.17-5.88-24.66-3.82-7.5-9.39-14.09-16.4-19.21,1.05-2.57,1.86-5.24,2.4-7.97.54-2.72.82-5.5.82-8.28,0-8.1-2.27-15.67-6.21-22.13-3.94-6.45-9.56-11.79-16.23-15.39-2.79-1.51-5.77-2.72-8.89-3.58-3.12-.86-6.38-1.38-9.74-1.5.01-.22.02-.45.03-.68,0-.22,0-.45,0-.68,0-11.58-4.64-22.08-12.14-29.77-7.51-7.69-17.9-12.56-29.39-12.85-12.73.35-21.74,4.22-27.47,12.5-3.9,5.63-6.28,13.32-7.29,23.31v96.58Z"/>
            <path class="cls-1" d="m301.84,211.26c-.13-6.54-1.58-57.13,3.88-62.32,2.89-3.87,7.43-5.54,13.85-5.47,5.4.06,10.31,2.21,13.91,5.69,3.6,3.48,5.89,8.28,6.07,13.64"/>
            <g>
              <path class="cls-1" d="m390.4,173.95s-2,12.6-8.49,18.5c-6.44,5.83-17.35,4.98-17.35,4.98"/>
              <path class="cls-1" d="m385.2,188.86s9.29,5.31,17.21,6.66c8.25,1.4,15.46-4.75,15.46-4.75"/>
            </g>
            <g>
              <path class="cls-1" d="m381.74,219.04s-2.14,9.54-7.38,13.73c-5.21,4.15-13.51,2.97-13.51,2.97"/>
              <path class="cls-1" d="m367.57,236.22s9.65,10.19,17.66,9.81c7.91-.38,14.35-3.54,14.35-3.54"/>
            </g>
            <path class="cls-1" d="m368,16.56s17.63,16.84,4.64,43.42c-9.88,20.22-32.94,13.71-32.94,13.71"/>
            <g>
              <path class="cls-1" d="m418.94,92.68s.34,4.25-6.11,17.06c-9.31,18.5-33.9,24.64-33.9,24.64"/>
              <path class="cls-1" d="m373.1,150.8s7.86-10.65,6.9-18.63c-.96-7.85-9.25-15.87-9.25-15.87"/>
            </g>
            <path class="cls-1" d="m318.92,269.9c15.64,14.83,42.34,7.92,48.72-12.72"/>
            <path class="cls-1" d="m324.85,178.28c.31-9.36,8.02-16.88,17.44-16.88,6.51,0,12.42,3.59,15.45,9.35"/>
            <path class="cls-1" d="m301.99,231.94c.31-9.36,8.01-16.87,17.44-16.87,6.5,0,12.42,3.58,15.45,9.35"/>
          </g>
          <g>
            <path class="cls-1" d="m290.41,155.2c-2.82-14.92-8.77-14.28-5.74-13.82,2.3.35,4.42-5.02,5.74-26.27V28.42c-1.36-7.79-3.73-13.55-7.29-17.67-6.07-7.03-15.57-9.38-29.28-9.24-11.53.12-22,4.71-29.68,12.13-7.68,7.42-12.58,17.67-12.94,29.11-.48-.05-.96-.09-1.43-.11-.48-.02-.95-.03-1.43-.03-8.91,0-17.01,3.63-22.86,9.49-5.86,5.86-9.49,13.95-9.49,22.87,0,3.36.51,6.63,1.48,9.74.98,3.12,2.43,6.06,4.32,8.75-8.52,4.77-15.47,11.67-20.29,19.85-4.82,8.19-7.51,17.66-7.51,27.58,0,8.76,2.07,17.17,5.88,24.66,3.82,7.5,9.39,14.09,16.4,19.21-1.06,2.57-1.86,5.24-2.4,7.97-.54,2.72-.81,5.5-.81,8.28,0,8.1,2.27,15.67,6.21,22.13,3.94,6.45,9.55,11.79,16.23,15.39,2.79,1.51,5.77,2.72,8.88,3.58,3.12.86,6.38,1.37,9.74,1.49-.01.23-.02.46-.02.68,0,.23,0,.46,0,.68,0,11.58,4.63,22.09,12.14,29.78,7.51,7.69,17.89,12.56,29.39,12.85,12.74-.35,21.74-4.22,27.46-12.5,3.9-5.64,6.28-13.32,7.29-23.32v-96.57Z"/>
            <path class="cls-1" d="m290.48,77.83c.13,6.54,1.59,57.13-3.88,62.31-2.89,3.87-7.42,5.54-13.86,5.47-5.4-.05-10.31-2.21-13.9-5.69-3.6-3.48-5.9-8.28-6.07-13.64"/>
            <g>
              <path class="cls-1" d="m201.91,115.15s2-12.6,8.49-18.5c6.44-5.84,17.35-4.98,17.35-4.98"/>
              <path class="cls-1" d="m207.11,100.23s-9.29-5.31-17.21-6.66c-8.26-1.4-15.46,4.75-15.46,4.75"/>
            </g>
            <g>
              <path class="cls-1" d="m210.57,70.05s2.14-9.53,7.38-13.73c5.2-4.15,13.51-2.97,13.51-2.97"/>
              <path class="cls-1" d="m224.74,52.87s-9.64-10.19-17.66-9.81c-7.9.38-14.35,3.54-14.35,3.54"/>
            </g>
            <path class="cls-1" d="m258.24,99.89s-14.51-5.35-7.37-23.82c4.61-11.93,17.3-10.55,17.3-10.55"/>
            <path class="cls-1" d="m224.32,272.54s-17.63-16.85-4.64-43.43c9.88-20.22,32.94-13.71,32.94-13.71"/>
            <g>
              <path class="cls-1" d="m173.37,196.41s-.33-4.24,6.11-17.05c9.31-18.5,33.9-24.64,33.9-24.64"/>
              <path class="cls-1" d="m219.21,138.3s-7.86,10.65-6.9,18.63c.96,7.85,9.25,15.87,9.25,15.87"/>
            </g>
            <path class="cls-1" d="m273.4,19.19c-15.65-14.84-42.34-7.92-48.73,12.72"/>
            <path class="cls-1" d="m233.39,123.21c.42-12.82,10.98-23.12,23.9-23.12,8.91,0,17.02,4.91,21.17,12.81"/>
            <path class="cls-1" d="m257.36,184.74c.31-9.36,8.01-16.88,17.44-16.88,6.5,0,12.42,3.58,15.44,9.35"/>
          </g>
        </g>
        <g>
          <path class="cls-2" d="m42.18,119.2c0,48.07,38.17,87.04,85.25,87.04,16.84,0,32.54-4.99,45.76-13.59"/>
          <path class="cls-2" d="m52.89,108.43c0,5.91-4.69,10.7-10.48,10.7-2.89,0-5.51-1.2-7.41-3.13-1.9-1.94-3.07-4.61-3.07-7.57,0-5.91,4.69-10.7,10.48-10.7s10.48,4.79,10.48,10.7Z"/>
          <path class="cls-2" d="m43.04,119.14c-10.65,1.51-20.48-6.08-21.95-16.96-.68-5.03.54-9.89,3.11-13.8"/>
          <path class="cls-2" d="m42.39,118.89c-7.57,7.79-19.9,7.84-27.53.11-3.53-3.58-5.44-8.2-5.72-12.9"/>
        </g>
        <g>
          <path class="cls-2" d="m528.54,117.49c0,48.07-38.97,87.04-87.04,87.04-14.55,0-28.27-3.57-40.32-9.88"/>
          <path class="cls-2" d="m517.64,106.64c0,5.91,4.79,10.7,10.7,10.7,2.96,0,5.63-1.2,7.57-3.13,1.94-1.94,3.13-4.61,3.13-7.57,0-5.91-4.79-10.7-10.7-10.7-5.91,0-10.7,4.79-10.7,10.7Z"/>
          <path class="cls-2" d="m527.69,117.35c10.87,1.51,20.91-6.08,22.42-16.96.7-5.03-.55-9.89-3.18-13.8"/>
          <path class="cls-2" d="m522.69,115.17c7.73,7.79,20.32,7.84,28.11.11,3.61-3.58,5.55-8.2,5.84-12.9"/>
        </g>
        <g>
          <path class="cls-2" d="m384.87,245.69s93.9,23.84,18.37,48.37c-48.39,15.71-76.79,18.85-90.94,19.07"/>
          <ellipse cx="311.33" cy="320.11" rx="8.94" ry="15.29"/>
          <path class="cls-2" d="m212.86,245.69s-91.01,23.84-17.81,48.37c46.9,15.71,74.42,18.85,88.15,19.07"/>
          <ellipse cx="284.14" cy="320.11" rx="8.67" ry="15.29"/>
        </g>
      </g>
    </g>
  </g>
</svg>