<?xml version="1.0" encoding="UTF-8"?>
<svg id="Layer_2" data-name="Layer 2" xmlns="http://www.w3.org/2000/svg" viewBox="0 0 240.73 77.87">
  <defs>
    <style>
      .cls-1 {
        fill: #fff;
      }
    </style>
  </defs>
  <g id="Layer_1-2" data-name="Layer 1">
    <path class="cls-1" d="m28.84,22.39c11.97-2.11,24.93,3.1,32.1,12.9.07-16.73,13.58-32.39,30.12-34.92,7.34-1.12,15.25.23,21.18,4.69s9.52,12.27,7.99,19.53c5.96-4.19,12.69-7.57,19.92-8.45s15.03,1.01,20.23,6.12c5.2,5.11,7.14,13.66,3.6,20.03,7.48-4.06,15.63-6.88,24.01-8.31,7.8-1.33,16.32-1.32,23,2.92,6.68,4.24,10.34,13.85,5.97,20.43,5.66-.62,11.66-1.19,16.82,1.24,5.15,2.43,8.77,9.05,5.95,14-2.71,4.73-9.19,5.29-14.64,5.29-18.91-.02-37.82-.04-56.73-.06-46.85-.05-93.71-.1-140.56-.15-5.45,0-11.08-.05-16.06-2.26-5.58-2.48-9.86-7.7-11.19-13.66C-3.22,44.75,12.64,25.25,28.84,22.39Z"/>
  </g>
</svg>