<?xml version="1.0" encoding="UTF-8"?>
<svg id="Layer_1" data-name="Layer 1" xmlns="http://www.w3.org/2000/svg" viewBox="0 0 1400 1000">
  <defs>
    <style>
      .cls-1 {
        fill: #fff;
      }

      .cls-2 {
        fill: #ffece9;
      }

      .cls-3 {
        fill: #ffacb3;
      }
    </style>
  </defs>
  <rect class="cls-2" x="4" width="1399" height="1000"/>
  <path class="cls-1" d="m1271.92,170.94c.7-10.46,5.87-19.37,8.13-29.4,1.5-6.67,2.51-13.86,6.27-19.64-12.5-2.99-26.54.36-35.98,9.17-5.51-19.43-26.67-33.04-46.64-29.99-19.97,3.05-36.1,22.36-35.56,42.55-15.36-12.19-39.06-12.37-54.6-.42-13.15,10.11-19.58,28.3-16.25,44.49,3.44,16.72,22.08,12.26,35.62,12.68l60.75,1.89c31.21.97,62.41,1.94,93.62,2.91-10.12-8.15-16.27-20.81-15.36-34.23Z"/>
  <path class="cls-1" d="m1335.07,951.47c-8.12.13-16.65.16-23.78-3.72-9.22-5.02-14.24-16.38-12.54-26.74,1.7-10.36,9.59-19.26,19.4-23,9.81-3.74,21.19-2.54,30.46,2.38-1.85-12.25,3.55-25.32,13.5-32.69,9.95-7.37,24.03-8.72,35.21-3.38,11.18,5.34,18.97,17.14,19.48,29.52,10.34-4.27,22.22-5.22,32.78-1.52,10.55,3.7,19.52,12.33,22.56,23.09,3.04,10.76-.45,23.37-9.29,30.22-7.83,6.07-18.05,6.92-27.6,6.49-9.97-.45-19.13-1.93-29.28-1.77-23.63.37-47.26.74-70.89,1.12Z"/>
  <path class="cls-1" d="m884.23,716.17c11.97-2.11,24.93,3.1,32.1,12.9.07-16.73,13.58-32.39,30.12-34.92,7.34-1.12,15.25.23,21.18,4.69s9.52,12.27,7.99,19.53c5.96-4.19,12.69-7.57,19.92-8.45s15.03,1.01,20.23,6.12c5.2,5.11,7.14,13.66,3.6,20.03,7.48-4.06,15.63-6.88,24.01-8.31,7.8-1.33,16.32-1.32,23,2.92,6.68,4.24,10.34,13.85,5.97,20.43,5.66-.62,11.66-1.19,16.82,1.24,5.15,2.43,8.77,9.05,5.95,14-2.71,4.73-9.19,5.29-14.64,5.29-18.91-.02-37.82-.04-56.73-.06-46.85-.05-93.71-.1-140.56-.15-5.45,0-11.08-.05-16.06-2.26-5.58-2.48-9.86-7.7-11.19-13.66-3.79-16.99,12.08-36.49,28.28-39.35Z"/>
  <path class="cls-1" d="m340.06,607.4c-1.11-10.86-11.56-19.08-22.39-20.51-10.83-1.43-21.68,2.63-31.11,8.15-.32-14.42-9.42-28.3-22.52-34.34s-29.56-3.96-40.74,5.16c-1.92-13.82-13.82-25.25-27.5-27.99-13.68-2.74-28.35,2.63-38.14,12.57-9.79,9.94-14.88,23.96-15.32,37.91-10.35-15.9-32.25-23.13-50.02-16.51-14.62,5.44-24.44,19.19-27,34.27-3.02,17.82,6.61,25.75,24.45,26.15,66.68,1.48,133.36,2.97,200.04,4.45,11.04.25,22.47.42,32.63-3.89,10.16-4.32,18.74-14.43,17.62-25.41Z"/>
  <polygon class="cls-3" points="1250.69 484.61 1211.96 484.61 1211.96 445.88 1204.87 445.88 1204.87 484.61 1166.14 484.61 1166.14 491.7 1204.87 491.7 1204.87 530.43 1211.96 530.43 1211.96 491.7 1250.69 491.7 1250.69 484.61"/>
  <polygon class="cls-3" points="310.38 345.71 282.6 345.71 282.6 317.94 277.52 317.94 277.52 345.71 249.75 345.71 249.75 350.8 277.52 350.8 277.52 378.57 282.6 378.57 282.6 350.8 310.38 350.8 310.38 345.71"/>
  <path class="cls-1" d="m152.15,143.63c-8.12.13-16.65.16-23.78-3.72-9.22-5.02-14.24-16.38-12.54-26.74,1.7-10.36,9.59-19.26,19.4-23,9.81-3.74,21.19-2.54,30.46,2.38-1.85-12.25,3.55-25.32,13.5-32.69,9.95-7.37,24.03-8.72,35.21-3.38s18.97,17.14,19.48,29.52c10.34-4.27,22.22-5.22,32.78-1.52,10.55,3.7,19.52,12.33,22.56,23.09s-.45,23.37-9.29,30.22c-7.83,6.07-18.05,6.92-27.6,6.49-9.97-.45-19.13-1.93-29.28-1.77-23.63.37-47.26.74-70.89,1.12Z"/>
  <polygon class="cls-3" points="940.13 99.27 920.07 99.27 920.07 79.21 916.4 79.21 916.4 99.27 896.34 99.27 896.34 102.94 916.4 102.94 916.4 123 920.07 123 920.07 102.94 940.13 102.94 940.13 99.27"/>
  <polygon class="cls-3" points="136.9 918.64 116.84 918.64 116.84 898.58 113.16 898.58 113.16 918.64 93.1 918.64 93.1 922.31 113.16 922.31 113.16 942.37 116.84 942.37 116.84 922.31 136.9 922.31 136.9 918.64"/>
</svg>